<mxfile host="app.diagrams.net" modified="2023-10-18T14:53:07.551Z" agent="Mozilla/5.0 (Windows NT 10.0; Win64; x64; rv:109.0) Gecko/20100101 Firefox/118.0" etag="BngaX-ZZsVO-H_2oAP4j" version="22.0.4" type="device">
  <diagram name="Page-1" id="_lzvPOPLIA4YjLvil35R">
    <mxGraphModel dx="1538" dy="926" grid="1" gridSize="10" guides="1" tooltips="1" connect="1" arrows="1" fold="1" page="1" pageScale="1" pageWidth="827" pageHeight="1169" math="0" shadow="0">
      <root>
        <mxCell id="0" />
        <mxCell id="1" parent="0" />
        <mxCell id="hW6972BpDhZ9CwE55BXF-136" style="edgeStyle=orthogonalEdgeStyle;rounded=0;orthogonalLoop=1;jettySize=auto;html=1;entryX=0;entryY=0.5;entryDx=0;entryDy=0;" edge="1" parent="1" source="hW6972BpDhZ9CwE55BXF-1" target="hW6972BpDhZ9CwE55BXF-2">
          <mxGeometry relative="1" as="geometry" />
        </mxCell>
        <mxCell id="hW6972BpDhZ9CwE55BXF-1" value="" style="ellipse;whiteSpace=wrap;html=1;aspect=fixed;" vertex="1" parent="1">
          <mxGeometry x="480" y="240" width="80" height="80" as="geometry" />
        </mxCell>
        <mxCell id="hW6972BpDhZ9CwE55BXF-137" style="edgeStyle=orthogonalEdgeStyle;rounded=0;orthogonalLoop=1;jettySize=auto;html=1;" edge="1" parent="1" source="hW6972BpDhZ9CwE55BXF-2" target="hW6972BpDhZ9CwE55BXF-5">
          <mxGeometry relative="1" as="geometry" />
        </mxCell>
        <mxCell id="hW6972BpDhZ9CwE55BXF-2" value="Vérifie l&#39;annexe " style="rounded=1;whiteSpace=wrap;html=1;fillColor=#dae8fc;strokeColor=#6c8ebf;" vertex="1" parent="1">
          <mxGeometry x="600" y="250" width="120" height="60" as="geometry" />
        </mxCell>
        <mxCell id="hW6972BpDhZ9CwE55BXF-138" style="edgeStyle=orthogonalEdgeStyle;rounded=0;orthogonalLoop=1;jettySize=auto;html=1;entryX=0;entryY=0.5;entryDx=0;entryDy=0;" edge="1" parent="1" source="hW6972BpDhZ9CwE55BXF-5" target="hW6972BpDhZ9CwE55BXF-11">
          <mxGeometry relative="1" as="geometry" />
        </mxCell>
        <mxCell id="hW6972BpDhZ9CwE55BXF-5" value="Vérifie les produits" style="rounded=1;whiteSpace=wrap;html=1;fillColor=#dae8fc;strokeColor=#6c8ebf;" vertex="1" parent="1">
          <mxGeometry x="760" y="250" width="120" height="60" as="geometry" />
        </mxCell>
        <mxCell id="hW6972BpDhZ9CwE55BXF-139" style="edgeStyle=orthogonalEdgeStyle;rounded=0;orthogonalLoop=1;jettySize=auto;html=1;entryX=0;entryY=0.5;entryDx=0;entryDy=0;" edge="1" parent="1" source="hW6972BpDhZ9CwE55BXF-11" target="hW6972BpDhZ9CwE55BXF-13">
          <mxGeometry relative="1" as="geometry" />
        </mxCell>
        <mxCell id="hW6972BpDhZ9CwE55BXF-11" value="Facturation" style="rounded=1;whiteSpace=wrap;html=1;fillColor=#dae8fc;strokeColor=#6c8ebf;" vertex="1" parent="1">
          <mxGeometry x="920" y="250" width="120" height="60" as="geometry" />
        </mxCell>
        <mxCell id="hW6972BpDhZ9CwE55BXF-140" style="edgeStyle=orthogonalEdgeStyle;rounded=0;orthogonalLoop=1;jettySize=auto;html=1;" edge="1" parent="1" source="hW6972BpDhZ9CwE55BXF-13" target="hW6972BpDhZ9CwE55BXF-18">
          <mxGeometry relative="1" as="geometry" />
        </mxCell>
        <mxCell id="hW6972BpDhZ9CwE55BXF-13" value="Inscription du N° de facture sur Annexe" style="rounded=1;whiteSpace=wrap;html=1;fillColor=#f8cecc;strokeColor=#b85450;" vertex="1" parent="1">
          <mxGeometry x="1080" y="250" width="120" height="60" as="geometry" />
        </mxCell>
        <mxCell id="hW6972BpDhZ9CwE55BXF-18" value="" style="ellipse;whiteSpace=wrap;html=1;aspect=fixed;" vertex="1" parent="1">
          <mxGeometry x="1240.5" y="240" width="80" height="80" as="geometry" />
        </mxCell>
        <mxCell id="hW6972BpDhZ9CwE55BXF-19" value="" style="ellipse;whiteSpace=wrap;html=1;aspect=fixed;fillColor=#000000;" vertex="1" parent="1">
          <mxGeometry x="1255.5" y="255" width="50" height="50" as="geometry" />
        </mxCell>
        <mxCell id="hW6972BpDhZ9CwE55BXF-130" style="edgeStyle=orthogonalEdgeStyle;rounded=0;orthogonalLoop=1;jettySize=auto;html=1;exitX=1;exitY=0.5;exitDx=0;exitDy=0;" edge="1" parent="1" source="hW6972BpDhZ9CwE55BXF-74" target="hW6972BpDhZ9CwE55BXF-75">
          <mxGeometry relative="1" as="geometry" />
        </mxCell>
        <mxCell id="hW6972BpDhZ9CwE55BXF-74" value="" style="ellipse;whiteSpace=wrap;html=1;aspect=fixed;" vertex="1" parent="1">
          <mxGeometry x="480" y="880" width="80" height="80" as="geometry" />
        </mxCell>
        <mxCell id="hW6972BpDhZ9CwE55BXF-180" style="edgeStyle=orthogonalEdgeStyle;rounded=0;orthogonalLoop=1;jettySize=auto;html=1;entryX=0;entryY=0.5;entryDx=0;entryDy=0;" edge="1" parent="1" source="hW6972BpDhZ9CwE55BXF-75" target="hW6972BpDhZ9CwE55BXF-177">
          <mxGeometry relative="1" as="geometry" />
        </mxCell>
        <mxCell id="hW6972BpDhZ9CwE55BXF-75" value="Vérification des données patient" style="rounded=1;whiteSpace=wrap;html=1;fillColor=#f8cecc;strokeColor=#b85450;" vertex="1" parent="1">
          <mxGeometry x="600" y="890" width="120" height="60" as="geometry" />
        </mxCell>
        <mxCell id="hW6972BpDhZ9CwE55BXF-132" style="edgeStyle=orthogonalEdgeStyle;rounded=0;orthogonalLoop=1;jettySize=auto;html=1;entryX=0;entryY=0.5;entryDx=0;entryDy=0;" edge="1" parent="1" source="hW6972BpDhZ9CwE55BXF-77" target="hW6972BpDhZ9CwE55BXF-79">
          <mxGeometry relative="1" as="geometry" />
        </mxCell>
        <mxCell id="hW6972BpDhZ9CwE55BXF-77" value="Vérification mutuelle" style="rounded=1;whiteSpace=wrap;html=1;fillColor=#f8cecc;strokeColor=#b85450;" vertex="1" parent="1">
          <mxGeometry x="880" y="950" width="120" height="60" as="geometry" />
        </mxCell>
        <mxCell id="hW6972BpDhZ9CwE55BXF-183" style="edgeStyle=orthogonalEdgeStyle;rounded=0;orthogonalLoop=1;jettySize=auto;html=1;entryX=0;entryY=0.5;entryDx=0;entryDy=0;" edge="1" parent="1" source="hW6972BpDhZ9CwE55BXF-79" target="hW6972BpDhZ9CwE55BXF-182">
          <mxGeometry relative="1" as="geometry" />
        </mxCell>
        <mxCell id="hW6972BpDhZ9CwE55BXF-79" value="Vérification du budget" style="rounded=1;whiteSpace=wrap;html=1;fillColor=#f8cecc;strokeColor=#b85450;" vertex="1" parent="1">
          <mxGeometry x="1040" y="950" width="120" height="60" as="geometry" />
        </mxCell>
        <mxCell id="hW6972BpDhZ9CwE55BXF-125" style="edgeStyle=orthogonalEdgeStyle;rounded=0;orthogonalLoop=1;jettySize=auto;html=1;entryX=0;entryY=0.5;entryDx=0;entryDy=0;" edge="1" parent="1" source="hW6972BpDhZ9CwE55BXF-80" target="hW6972BpDhZ9CwE55BXF-88">
          <mxGeometry relative="1" as="geometry" />
        </mxCell>
        <mxCell id="hW6972BpDhZ9CwE55BXF-80" value="" style="ellipse;whiteSpace=wrap;html=1;aspect=fixed;" vertex="1" parent="1">
          <mxGeometry x="480" y="640" width="80" height="80" as="geometry" />
        </mxCell>
        <mxCell id="hW6972BpDhZ9CwE55BXF-134" style="edgeStyle=orthogonalEdgeStyle;rounded=0;orthogonalLoop=1;jettySize=auto;html=1;entryX=0;entryY=0.5;entryDx=0;entryDy=0;" edge="1" parent="1" source="hW6972BpDhZ9CwE55BXF-81" target="hW6972BpDhZ9CwE55BXF-84">
          <mxGeometry relative="1" as="geometry" />
        </mxCell>
        <mxCell id="hW6972BpDhZ9CwE55BXF-81" value="Facturation" style="rounded=1;whiteSpace=wrap;html=1;fillColor=#f8cecc;strokeColor=#b85450;" vertex="1" parent="1">
          <mxGeometry x="1560" y="925" width="120" height="60" as="geometry" />
        </mxCell>
        <mxCell id="hW6972BpDhZ9CwE55BXF-84" value="" style="ellipse;whiteSpace=wrap;html=1;aspect=fixed;" vertex="1" parent="1">
          <mxGeometry x="1720.5" y="915" width="80" height="80" as="geometry" />
        </mxCell>
        <mxCell id="hW6972BpDhZ9CwE55BXF-85" value="" style="ellipse;whiteSpace=wrap;html=1;aspect=fixed;fillColor=#000000;" vertex="1" parent="1">
          <mxGeometry x="1735.5" y="930" width="50" height="50" as="geometry" />
        </mxCell>
        <mxCell id="hW6972BpDhZ9CwE55BXF-126" style="edgeStyle=orthogonalEdgeStyle;rounded=0;orthogonalLoop=1;jettySize=auto;html=1;entryX=0;entryY=0.5;entryDx=0;entryDy=0;" edge="1" parent="1" source="hW6972BpDhZ9CwE55BXF-88" target="hW6972BpDhZ9CwE55BXF-89">
          <mxGeometry relative="1" as="geometry" />
        </mxCell>
        <mxCell id="hW6972BpDhZ9CwE55BXF-88" value="Aller sur INAMI" style="rounded=1;whiteSpace=wrap;html=1;fillColor=#f8cecc;strokeColor=#b85450;" vertex="1" parent="1">
          <mxGeometry x="600" y="650" width="120" height="60" as="geometry" />
        </mxCell>
        <mxCell id="hW6972BpDhZ9CwE55BXF-127" style="edgeStyle=orthogonalEdgeStyle;rounded=0;orthogonalLoop=1;jettySize=auto;html=1;" edge="1" parent="1" source="hW6972BpDhZ9CwE55BXF-89" target="hW6972BpDhZ9CwE55BXF-90">
          <mxGeometry relative="1" as="geometry" />
        </mxCell>
        <mxCell id="hW6972BpDhZ9CwE55BXF-89" value="Rechercher produits" style="rounded=1;whiteSpace=wrap;html=1;fillColor=#f8cecc;strokeColor=#b85450;" vertex="1" parent="1">
          <mxGeometry x="760" y="650" width="120" height="60" as="geometry" />
        </mxCell>
        <mxCell id="hW6972BpDhZ9CwE55BXF-157" style="edgeStyle=orthogonalEdgeStyle;rounded=0;orthogonalLoop=1;jettySize=auto;html=1;entryX=0;entryY=0.5;entryDx=0;entryDy=0;" edge="1" parent="1" source="hW6972BpDhZ9CwE55BXF-90" target="hW6972BpDhZ9CwE55BXF-155">
          <mxGeometry relative="1" as="geometry" />
        </mxCell>
        <mxCell id="hW6972BpDhZ9CwE55BXF-90" value="Vérifier produits" style="rounded=1;whiteSpace=wrap;html=1;fillColor=#f8cecc;strokeColor=#b85450;" vertex="1" parent="1">
          <mxGeometry x="920" y="650" width="120" height="60" as="geometry" />
        </mxCell>
        <mxCell id="hW6972BpDhZ9CwE55BXF-197" style="edgeStyle=orthogonalEdgeStyle;rounded=0;orthogonalLoop=1;jettySize=auto;html=1;" edge="1" parent="1" source="hW6972BpDhZ9CwE55BXF-98" target="hW6972BpDhZ9CwE55BXF-196">
          <mxGeometry relative="1" as="geometry">
            <Array as="points">
              <mxPoint x="1350" y="740" />
              <mxPoint x="1350" y="740" />
            </Array>
          </mxGeometry>
        </mxCell>
        <mxCell id="hW6972BpDhZ9CwE55BXF-98" value="Vérifier Budget" style="rounded=1;whiteSpace=wrap;html=1;fillColor=#f8cecc;strokeColor=#b85450;" vertex="1" parent="1">
          <mxGeometry x="1200" y="710" width="120" height="60" as="geometry" />
        </mxCell>
        <mxCell id="hW6972BpDhZ9CwE55BXF-103" value="" style="ellipse;whiteSpace=wrap;html=1;aspect=fixed;" vertex="1" parent="1">
          <mxGeometry x="1400" y="640" width="80" height="80" as="geometry" />
        </mxCell>
        <mxCell id="hW6972BpDhZ9CwE55BXF-104" value="" style="ellipse;whiteSpace=wrap;html=1;aspect=fixed;fillColor=#000000;" vertex="1" parent="1">
          <mxGeometry x="1415" y="655" width="50" height="50" as="geometry" />
        </mxCell>
        <mxCell id="hW6972BpDhZ9CwE55BXF-119" style="edgeStyle=orthogonalEdgeStyle;rounded=0;orthogonalLoop=1;jettySize=auto;html=1;entryX=0;entryY=0.5;entryDx=0;entryDy=0;" edge="1" parent="1" source="hW6972BpDhZ9CwE55BXF-106" target="hW6972BpDhZ9CwE55BXF-109">
          <mxGeometry relative="1" as="geometry" />
        </mxCell>
        <mxCell id="hW6972BpDhZ9CwE55BXF-106" value="" style="ellipse;whiteSpace=wrap;html=1;aspect=fixed;" vertex="1" parent="1">
          <mxGeometry x="480" y="400" width="80" height="80" as="geometry" />
        </mxCell>
        <mxCell id="hW6972BpDhZ9CwE55BXF-144" style="edgeStyle=orthogonalEdgeStyle;rounded=0;orthogonalLoop=1;jettySize=auto;html=1;entryX=0;entryY=0.5;entryDx=0;entryDy=0;" edge="1" parent="1" source="hW6972BpDhZ9CwE55BXF-109" target="hW6972BpDhZ9CwE55BXF-143">
          <mxGeometry relative="1" as="geometry" />
        </mxCell>
        <mxCell id="hW6972BpDhZ9CwE55BXF-109" value="Informations patient" style="rounded=1;whiteSpace=wrap;html=1;fillColor=#f8cecc;strokeColor=#b85450;" vertex="1" parent="1">
          <mxGeometry x="600" y="410" width="120" height="60" as="geometry" />
        </mxCell>
        <mxCell id="hW6972BpDhZ9CwE55BXF-121" style="edgeStyle=orthogonalEdgeStyle;rounded=0;orthogonalLoop=1;jettySize=auto;html=1;entryX=0;entryY=0.5;entryDx=0;entryDy=0;" edge="1" parent="1" source="hW6972BpDhZ9CwE55BXF-110" target="hW6972BpDhZ9CwE55BXF-111">
          <mxGeometry relative="1" as="geometry" />
        </mxCell>
        <mxCell id="hW6972BpDhZ9CwE55BXF-110" value="Dates" style="rounded=1;whiteSpace=wrap;html=1;fillColor=#f8cecc;strokeColor=#b85450;" vertex="1" parent="1">
          <mxGeometry x="1070" y="410" width="120" height="60" as="geometry" />
        </mxCell>
        <mxCell id="hW6972BpDhZ9CwE55BXF-122" style="edgeStyle=orthogonalEdgeStyle;rounded=0;orthogonalLoop=1;jettySize=auto;html=1;entryX=0;entryY=0.5;entryDx=0;entryDy=0;" edge="1" parent="1" source="hW6972BpDhZ9CwE55BXF-111" target="hW6972BpDhZ9CwE55BXF-112">
          <mxGeometry relative="1" as="geometry" />
        </mxCell>
        <mxCell id="hW6972BpDhZ9CwE55BXF-111" value="Informations prescripteur" style="rounded=1;whiteSpace=wrap;html=1;fillColor=#f8cecc;strokeColor=#b85450;" vertex="1" parent="1">
          <mxGeometry x="1229" y="410" width="120" height="60" as="geometry" />
        </mxCell>
        <mxCell id="hW6972BpDhZ9CwE55BXF-123" style="edgeStyle=orthogonalEdgeStyle;rounded=0;orthogonalLoop=1;jettySize=auto;html=1;entryX=0;entryY=0.5;entryDx=0;entryDy=0;" edge="1" parent="1" source="hW6972BpDhZ9CwE55BXF-112" target="hW6972BpDhZ9CwE55BXF-115">
          <mxGeometry relative="1" as="geometry" />
        </mxCell>
        <mxCell id="hW6972BpDhZ9CwE55BXF-112" value="Partie complétée par le patient" style="rounded=1;whiteSpace=wrap;html=1;fillColor=#f8cecc;strokeColor=#b85450;" vertex="1" parent="1">
          <mxGeometry x="1391" y="410" width="120" height="60" as="geometry" />
        </mxCell>
        <mxCell id="hW6972BpDhZ9CwE55BXF-124" style="edgeStyle=orthogonalEdgeStyle;rounded=0;orthogonalLoop=1;jettySize=auto;html=1;" edge="1" parent="1" source="hW6972BpDhZ9CwE55BXF-115" target="hW6972BpDhZ9CwE55BXF-116">
          <mxGeometry relative="1" as="geometry" />
        </mxCell>
        <mxCell id="hW6972BpDhZ9CwE55BXF-115" value="Partie complétée par le bandagiste" style="rounded=1;whiteSpace=wrap;html=1;fillColor=#f8cecc;strokeColor=#b85450;" vertex="1" parent="1">
          <mxGeometry x="1552" y="410" width="120" height="60" as="geometry" />
        </mxCell>
        <mxCell id="hW6972BpDhZ9CwE55BXF-116" value="" style="ellipse;whiteSpace=wrap;html=1;aspect=fixed;" vertex="1" parent="1">
          <mxGeometry x="1711" y="400" width="80" height="80" as="geometry" />
        </mxCell>
        <mxCell id="hW6972BpDhZ9CwE55BXF-117" value="" style="ellipse;whiteSpace=wrap;html=1;aspect=fixed;fillColor=#000000;" vertex="1" parent="1">
          <mxGeometry x="1726" y="415" width="50" height="50" as="geometry" />
        </mxCell>
        <mxCell id="hW6972BpDhZ9CwE55BXF-147" style="edgeStyle=orthogonalEdgeStyle;rounded=0;orthogonalLoop=1;jettySize=auto;html=1;" edge="1" parent="1" source="hW6972BpDhZ9CwE55BXF-142" target="hW6972BpDhZ9CwE55BXF-200">
          <mxGeometry relative="1" as="geometry">
            <Array as="points">
              <mxPoint x="1030" y="500" />
              <mxPoint x="1030" y="440" />
            </Array>
          </mxGeometry>
        </mxCell>
        <mxCell id="hW6972BpDhZ9CwE55BXF-142" value="Informations mutuelle" style="rounded=1;whiteSpace=wrap;html=1;fillColor=#f8cecc;strokeColor=#b85450;" vertex="1" parent="1">
          <mxGeometry x="880" y="470" width="120" height="60" as="geometry" />
        </mxCell>
        <mxCell id="hW6972BpDhZ9CwE55BXF-145" style="edgeStyle=orthogonalEdgeStyle;rounded=0;orthogonalLoop=1;jettySize=auto;html=1;exitX=0.5;exitY=0;exitDx=0;exitDy=0;" edge="1" parent="1" source="hW6972BpDhZ9CwE55BXF-143" target="hW6972BpDhZ9CwE55BXF-200">
          <mxGeometry relative="1" as="geometry">
            <Array as="points">
              <mxPoint x="800" y="380" />
              <mxPoint x="1030" y="380" />
              <mxPoint x="1030" y="440" />
            </Array>
          </mxGeometry>
        </mxCell>
        <mxCell id="hW6972BpDhZ9CwE55BXF-170" value="Annexe13" style="edgeLabel;html=1;align=center;verticalAlign=middle;resizable=0;points=[];" vertex="1" connectable="0" parent="hW6972BpDhZ9CwE55BXF-145">
          <mxGeometry x="-0.7758" y="-1" relative="1" as="geometry">
            <mxPoint x="1" y="-11" as="offset" />
          </mxGeometry>
        </mxCell>
        <mxCell id="hW6972BpDhZ9CwE55BXF-146" style="edgeStyle=orthogonalEdgeStyle;rounded=0;orthogonalLoop=1;jettySize=auto;html=1;entryX=0;entryY=0.5;entryDx=0;entryDy=0;" edge="1" parent="1" source="hW6972BpDhZ9CwE55BXF-143" target="hW6972BpDhZ9CwE55BXF-142">
          <mxGeometry relative="1" as="geometry">
            <Array as="points">
              <mxPoint x="800" y="500" />
            </Array>
          </mxGeometry>
        </mxCell>
        <mxCell id="hW6972BpDhZ9CwE55BXF-169" value="Annexe13TER" style="edgeLabel;html=1;align=center;verticalAlign=middle;resizable=0;points=[];" vertex="1" connectable="0" parent="hW6972BpDhZ9CwE55BXF-146">
          <mxGeometry x="-0.28" y="1" relative="1" as="geometry">
            <mxPoint x="11" y="11" as="offset" />
          </mxGeometry>
        </mxCell>
        <mxCell id="hW6972BpDhZ9CwE55BXF-143" value="&lt;div&gt;A13&lt;/div&gt;&lt;div&gt;13TER&lt;br&gt;&lt;/div&gt;" style="rhombus;whiteSpace=wrap;html=1;fillColor=#d5e8d4;strokeColor=#82b366;" vertex="1" parent="1">
          <mxGeometry x="760" y="400" width="80" height="80" as="geometry" />
        </mxCell>
        <mxCell id="hW6972BpDhZ9CwE55BXF-198" style="edgeStyle=orthogonalEdgeStyle;rounded=0;orthogonalLoop=1;jettySize=auto;html=1;" edge="1" parent="1" source="hW6972BpDhZ9CwE55BXF-154" target="hW6972BpDhZ9CwE55BXF-196">
          <mxGeometry relative="1" as="geometry">
            <Array as="points">
              <mxPoint x="1350" y="620" />
              <mxPoint x="1350" y="620" />
            </Array>
          </mxGeometry>
        </mxCell>
        <mxCell id="hW6972BpDhZ9CwE55BXF-154" value="Vérifier Quota" style="rounded=1;whiteSpace=wrap;html=1;fillColor=#f8cecc;strokeColor=#b85450;" vertex="1" parent="1">
          <mxGeometry x="1200" y="590" width="120" height="60" as="geometry" />
        </mxCell>
        <mxCell id="hW6972BpDhZ9CwE55BXF-160" style="edgeStyle=orthogonalEdgeStyle;rounded=0;orthogonalLoop=1;jettySize=auto;html=1;entryX=0;entryY=0.5;entryDx=0;entryDy=0;" edge="1" parent="1" source="hW6972BpDhZ9CwE55BXF-155" target="hW6972BpDhZ9CwE55BXF-98">
          <mxGeometry relative="1" as="geometry">
            <Array as="points">
              <mxPoint x="1120" y="740" />
            </Array>
          </mxGeometry>
        </mxCell>
        <mxCell id="hW6972BpDhZ9CwE55BXF-168" value="Annexe13TER" style="edgeLabel;html=1;align=center;verticalAlign=middle;resizable=0;points=[];" vertex="1" connectable="0" parent="hW6972BpDhZ9CwE55BXF-160">
          <mxGeometry x="0.04" relative="1" as="geometry">
            <mxPoint y="10" as="offset" />
          </mxGeometry>
        </mxCell>
        <mxCell id="hW6972BpDhZ9CwE55BXF-161" style="edgeStyle=orthogonalEdgeStyle;rounded=0;orthogonalLoop=1;jettySize=auto;html=1;entryX=0;entryY=0.5;entryDx=0;entryDy=0;" edge="1" parent="1" source="hW6972BpDhZ9CwE55BXF-155" target="hW6972BpDhZ9CwE55BXF-154">
          <mxGeometry relative="1" as="geometry">
            <Array as="points">
              <mxPoint x="1120" y="620" />
            </Array>
          </mxGeometry>
        </mxCell>
        <mxCell id="hW6972BpDhZ9CwE55BXF-167" value="Annexe13" style="edgeLabel;html=1;align=center;verticalAlign=middle;resizable=0;points=[];" vertex="1" connectable="0" parent="hW6972BpDhZ9CwE55BXF-161">
          <mxGeometry x="-0.0933" y="-1" relative="1" as="geometry">
            <mxPoint x="-5" y="-11" as="offset" />
          </mxGeometry>
        </mxCell>
        <mxCell id="hW6972BpDhZ9CwE55BXF-155" value="&lt;div&gt;A13&lt;/div&gt;&lt;div&gt;13TER&lt;br&gt;&lt;/div&gt;" style="rhombus;whiteSpace=wrap;html=1;fillColor=#d5e8d4;strokeColor=#82b366;" vertex="1" parent="1">
          <mxGeometry x="1080" y="640" width="80" height="80" as="geometry" />
        </mxCell>
        <mxCell id="hW6972BpDhZ9CwE55BXF-194" style="edgeStyle=orthogonalEdgeStyle;rounded=0;orthogonalLoop=1;jettySize=auto;html=1;" edge="1" parent="1" source="hW6972BpDhZ9CwE55BXF-172" target="hW6972BpDhZ9CwE55BXF-189">
          <mxGeometry relative="1" as="geometry">
            <Array as="points">
              <mxPoint x="1370" y="860" />
              <mxPoint x="1370" y="860" />
            </Array>
          </mxGeometry>
        </mxCell>
        <mxCell id="hW6972BpDhZ9CwE55BXF-172" value="Vérifier Quota" style="rounded=1;whiteSpace=wrap;html=1;fillColor=#f8cecc;strokeColor=#b85450;" vertex="1" parent="1">
          <mxGeometry x="880" y="830" width="120" height="60" as="geometry" />
        </mxCell>
        <mxCell id="hW6972BpDhZ9CwE55BXF-173" style="edgeStyle=orthogonalEdgeStyle;rounded=0;orthogonalLoop=1;jettySize=auto;html=1;entryX=0;entryY=0.5;entryDx=0;entryDy=0;" edge="1" parent="1" source="hW6972BpDhZ9CwE55BXF-177" target="hW6972BpDhZ9CwE55BXF-77">
          <mxGeometry relative="1" as="geometry">
            <Array as="points">
              <mxPoint x="800" y="980" />
            </Array>
            <mxPoint x="880" y="980" as="targetPoint" />
          </mxGeometry>
        </mxCell>
        <mxCell id="hW6972BpDhZ9CwE55BXF-174" value="Annexe13TER" style="edgeLabel;html=1;align=center;verticalAlign=middle;resizable=0;points=[];" vertex="1" connectable="0" parent="hW6972BpDhZ9CwE55BXF-173">
          <mxGeometry x="0.04" relative="1" as="geometry">
            <mxPoint y="10" as="offset" />
          </mxGeometry>
        </mxCell>
        <mxCell id="hW6972BpDhZ9CwE55BXF-175" style="edgeStyle=orthogonalEdgeStyle;rounded=0;orthogonalLoop=1;jettySize=auto;html=1;" edge="1" parent="1" source="hW6972BpDhZ9CwE55BXF-177" target="hW6972BpDhZ9CwE55BXF-172">
          <mxGeometry relative="1" as="geometry">
            <Array as="points">
              <mxPoint x="800" y="860" />
            </Array>
          </mxGeometry>
        </mxCell>
        <mxCell id="hW6972BpDhZ9CwE55BXF-176" value="Annexe13" style="edgeLabel;html=1;align=center;verticalAlign=middle;resizable=0;points=[];" vertex="1" connectable="0" parent="hW6972BpDhZ9CwE55BXF-175">
          <mxGeometry x="-0.0933" y="-1" relative="1" as="geometry">
            <mxPoint x="-5" y="-11" as="offset" />
          </mxGeometry>
        </mxCell>
        <mxCell id="hW6972BpDhZ9CwE55BXF-177" value="&lt;div&gt;A13&lt;/div&gt;&lt;div&gt;13TER&lt;br&gt;&lt;/div&gt;" style="rhombus;whiteSpace=wrap;html=1;fillColor=#d5e8d4;strokeColor=#82b366;" vertex="1" parent="1">
          <mxGeometry x="760" y="880" width="80" height="80" as="geometry" />
        </mxCell>
        <mxCell id="hW6972BpDhZ9CwE55BXF-193" style="edgeStyle=orthogonalEdgeStyle;rounded=0;orthogonalLoop=1;jettySize=auto;html=1;" edge="1" parent="1" source="hW6972BpDhZ9CwE55BXF-181" target="hW6972BpDhZ9CwE55BXF-189">
          <mxGeometry relative="1" as="geometry">
            <Array as="points">
              <mxPoint x="1460" y="1040" />
              <mxPoint x="1460" y="1040" />
            </Array>
          </mxGeometry>
        </mxCell>
        <mxCell id="hW6972BpDhZ9CwE55BXF-181" value="Bon à facturer" style="rounded=1;whiteSpace=wrap;html=1;fillColor=#f8cecc;strokeColor=#b85450;" vertex="1" parent="1">
          <mxGeometry x="1320.5" y="1010" width="120" height="60" as="geometry" />
        </mxCell>
        <mxCell id="hW6972BpDhZ9CwE55BXF-185" style="edgeStyle=orthogonalEdgeStyle;rounded=0;orthogonalLoop=1;jettySize=auto;html=1;entryX=0;entryY=0.5;entryDx=0;entryDy=0;" edge="1" parent="1" source="hW6972BpDhZ9CwE55BXF-182" target="hW6972BpDhZ9CwE55BXF-181">
          <mxGeometry relative="1" as="geometry">
            <Array as="points">
              <mxPoint x="1241" y="1040" />
            </Array>
          </mxGeometry>
        </mxCell>
        <mxCell id="hW6972BpDhZ9CwE55BXF-188" style="edgeStyle=orthogonalEdgeStyle;rounded=0;orthogonalLoop=1;jettySize=auto;html=1;" edge="1" parent="1" source="hW6972BpDhZ9CwE55BXF-182" target="hW6972BpDhZ9CwE55BXF-189">
          <mxGeometry relative="1" as="geometry">
            <mxPoint x="1450" y="920" as="targetPoint" />
            <Array as="points">
              <mxPoint x="1241" y="920" />
            </Array>
          </mxGeometry>
        </mxCell>
        <mxCell id="hW6972BpDhZ9CwE55BXF-182" value="A93 ?" style="rhombus;whiteSpace=wrap;html=1;fillColor=#d5e8d4;strokeColor=#82b366;" vertex="1" parent="1">
          <mxGeometry x="1201" y="940" width="80" height="80" as="geometry" />
        </mxCell>
        <mxCell id="hW6972BpDhZ9CwE55BXF-195" style="edgeStyle=orthogonalEdgeStyle;rounded=0;orthogonalLoop=1;jettySize=auto;html=1;entryX=0;entryY=0.5;entryDx=0;entryDy=0;" edge="1" parent="1" source="hW6972BpDhZ9CwE55BXF-189" target="hW6972BpDhZ9CwE55BXF-81">
          <mxGeometry relative="1" as="geometry" />
        </mxCell>
        <mxCell id="hW6972BpDhZ9CwE55BXF-189" value="" style="line;strokeWidth=4;direction=south;html=1;perimeter=backbonePerimeter;points=[];outlineConnect=0;" vertex="1" parent="1">
          <mxGeometry x="1480" y="840" width="10" height="230" as="geometry" />
        </mxCell>
        <mxCell id="hW6972BpDhZ9CwE55BXF-199" style="edgeStyle=orthogonalEdgeStyle;rounded=0;orthogonalLoop=1;jettySize=auto;html=1;entryX=0;entryY=0.5;entryDx=0;entryDy=0;" edge="1" parent="1" source="hW6972BpDhZ9CwE55BXF-196" target="hW6972BpDhZ9CwE55BXF-103">
          <mxGeometry relative="1" as="geometry" />
        </mxCell>
        <mxCell id="hW6972BpDhZ9CwE55BXF-196" value="" style="line;strokeWidth=4;direction=south;html=1;perimeter=backbonePerimeter;points=[];outlineConnect=0;" vertex="1" parent="1">
          <mxGeometry x="1360" y="590" width="10" height="180" as="geometry" />
        </mxCell>
        <mxCell id="hW6972BpDhZ9CwE55BXF-201" style="edgeStyle=orthogonalEdgeStyle;rounded=0;orthogonalLoop=1;jettySize=auto;html=1;entryX=0;entryY=0.5;entryDx=0;entryDy=0;" edge="1" parent="1" source="hW6972BpDhZ9CwE55BXF-200" target="hW6972BpDhZ9CwE55BXF-110">
          <mxGeometry relative="1" as="geometry" />
        </mxCell>
        <mxCell id="hW6972BpDhZ9CwE55BXF-200" value="" style="line;strokeWidth=4;direction=south;html=1;perimeter=backbonePerimeter;points=[];outlineConnect=0;" vertex="1" parent="1">
          <mxGeometry x="1020" y="360" width="10" height="160" as="geometry" />
        </mxCell>
      </root>
    </mxGraphModel>
  </diagram>
</mxfile>
